<svg xmlns="http://www.w3.org/2000/svg" width="1200" height="420" font-family="Menlo,Consolas,monospace" font-size="11">
<rect width="1200" height="420" fill="#161616"/>
<text x="70" y="22" fill="#e8e8e8" font-size="14" font-weight="bold">Kafka consumer lag under a real k6 burst (4 workers) — 146,900 peak, drains to 0</text>
<line x1="70" y1="370.0" x2="1170" y2="370.0" stroke="#333" stroke-width="1"/>
<text x="62" y="374.0" fill="#999" text-anchor="end">0</text>
<line x1="70" y1="287.5" x2="1170" y2="287.5" stroke="#333" stroke-width="1"/>
<text x="62" y="291.5" fill="#999" text-anchor="end">36,725</text>
<line x1="70" y1="205.0" x2="1170" y2="205.0" stroke="#333" stroke-width="1"/>
<text x="62" y="209.0" fill="#999" text-anchor="end">73,450</text>
<line x1="70" y1="122.5" x2="1170" y2="122.5" stroke="#333" stroke-width="1"/>
<text x="62" y="126.5" fill="#999" text-anchor="end">110,175</text>
<line x1="70" y1="40.0" x2="1170" y2="40.0" stroke="#333" stroke-width="1"/>
<text x="62" y="44.0" fill="#999" text-anchor="end">146,900</text>
<text x="70.0" y="388" fill="#999" text-anchor="middle">0s</text>
<text x="345.0" y="388" fill="#999" text-anchor="middle">36s</text>
<text x="620.0" y="388" fill="#999" text-anchor="middle">73s</text>
<text x="895.0" y="388" fill="#999" text-anchor="middle">109s</text>
<text x="1170.0" y="388" fill="#999" text-anchor="middle">146s</text>
<path d="M 70.0 369.1 L 71.1 369.3 L 73.2 369.6 L 74.5 369.8 L 75.7 370.0 L 77.2 328.0 L 78.7 328.2 L 80.5 328.4 L 82.2 328.7 L 85.1 328.9 L 86.7 329.1 L 88.1 329.3 L 89.7 329.6 L 93.8 329.8 L 96.4 330.0 L 102.1 330.2 L 105.4 330.5 L 108.0 330.7 L 110.9 330.9 L 113.7 331.1 L 117.1 331.4 L 120.4 331.6 L 124.0 331.8 L 127.4 332.0 L 129.1 332.3 L 130.7 332.5 L 132.5 332.7 L 134.4 332.9 L 136.4 333.2 L 138.5 333.4 L 140.2 333.6 L 142.1 333.8 L 143.6 334.1 L 145.8 334.3 L 147.9 334.5 L 149.7 334.7 L 151.4 335.0 L 153.2 335.2 L 156.3 335.4 L 159.3 335.6 L 164.1 335.9 L 166.6 336.1 L 168.3 336.3 L 170.3 336.5 L 172.5 336.8 L 174.7 337.0 L 176.6 337.2 L 178.6 337.4 L 181.7 337.7 L 183.7 337.9 L 185.6 338.1 L 187.8 338.3 L 189.8 161.1 L 192.6 161.3 L 195.7 161.5 L 198.4 161.8 L 200.9 162.0 L 203.8 162.2 L 206.2 162.4 L 209.2 162.7 L 211.5 162.9 L 214.1 163.1 L 216.4 163.3 L 219.8 163.6 L 228.3 163.8 L 232.5 164.0 L 237.2 164.2 L 243.4 164.5 L 247.4 164.7 L 252.2 164.9 L 255.4 165.1 L 260.1 165.4 L 266.2 165.6 L 270.4 165.8 L 272.7 166.0 L 275.5 166.2 L 277.5 166.5 L 279.3 166.7 L 282.0 166.9 L 284.4 167.1 L 287.9 167.4 L 291.7 167.6 L 293.1 167.8 L 294.3 168.0 L 295.5 168.3 L 296.5 168.5 L 297.5 168.7 L 298.5 168.9 L 299.9 169.2 L 301.3 169.4 L 302.1 169.6 L 302.8 169.8 L 303.7 170.1 L 304.5 170.3 L 305.2 170.5 L 306.1 170.7 L 307.0 171.0 L 307.8 171.2 L 308.5 171.4 L 309.2 40.0 L 312.4 40.2 L 314.8 40.4 L 316.6 40.7 L 318.2 40.9 L 319.4 41.1 L 320.1 41.3 L 321.1 41.6 L 321.8 41.8 L 322.4 42.0 L 323.2 42.2 L 323.9 42.5 L 324.6 42.7 L 325.1 42.9 L 325.8 43.1 L 326.6 43.4 L 327.3 43.6 L 327.9 43.8 L 328.6 44.0 L 329.3 44.3 L 329.9 44.5 L 330.4 44.7 L 330.8 44.9 L 331.3 45.2 L 331.7 45.4 L 332.1 45.6 L 332.5 45.8 L 332.9 46.1 L 333.4 46.3 L 333.9 46.5 L 334.4 46.7 L 335.0 47.0 L 335.5 47.2 L 336.0 47.4 L 336.4 47.6 L 336.9 47.9 L 337.3 48.1 L 337.8 48.3 L 338.2 48.5 L 338.6 48.8 L 339.1 49.0 L 339.6 49.2 L 340.0 49.4 L 340.4 49.7 L 340.8 49.9 L 341.4 50.1 L 341.9 50.3 L 342.4 50.4 L 343.0 50.6 L 343.4 50.8 L 344.0 51.1 L 344.5 51.3 L 345.1 51.5 L 345.7 51.7 L 346.3 52.0 L 346.8 52.2 L 347.4 52.4 L 348.1 52.6 L 348.7 52.9 L 349.2 53.1 L 349.7 53.3 L 350.2 53.5 L 350.7 53.8 L 351.2 54.0 L 351.8 54.2 L 352.3 54.4 L 353.0 54.7 L 353.7 54.9 L 354.3 55.1 L 355.0 55.3 L 355.6 55.6 L 356.1 55.8 L 356.6 56.0 L 357.1 56.2 L 357.5 56.5 L 358.0 56.7 L 358.6 56.9 L 359.2 57.1 L 359.8 57.4 L 360.5 57.6 L 360.9 57.8 L 361.5 58.0 L 362.2 58.3 L 362.7 58.5 L 363.3 58.7 L 363.8 58.9 L 364.4 59.2 L 364.8 59.4 L 365.3 59.6 L 365.8 59.8 L 366.4 60.1 L 366.9 60.3 L 367.3 60.5 L 367.7 60.7 L 368.2 61.0 L 368.7 61.2 L 369.2 61.4 L 369.6 61.6 L 370.1 61.9 L 370.7 62.1 L 371.2 62.3 L 371.6 62.5 L 372.1 62.7 L 372.5 63.0 L 372.9 63.2 L 373.4 63.4 L 373.8 63.6 L 374.2 63.9 L 374.7 64.1 L 375.2 64.3 L 375.6 64.5 L 376.1 64.8 L 376.6 65.0 L 377.2 65.2 L 377.8 65.4 L 378.3 65.7 L 378.8 65.9 L 379.3 66.1 L 379.9 66.3 L 380.4 66.6 L 380.9 66.8 L 381.3 67.0 L 381.9 67.2 L 382.3 67.5 L 382.8 67.7 L 383.3 67.9 L 383.8 68.1 L 384.4 68.4 L 385.1 68.6 L 385.8 68.8 L 386.5 69.0 L 387.1 69.3 L 387.6 69.5 L 388.1 69.7 L 388.5 69.9 L 388.9 70.2 L 389.3 70.4 L 389.7 70.6 L 390.1 70.8 L 390.4 71.1 L 390.8 71.3 L 391.2 71.5 L 391.5 71.7 L 391.9 72.0 L 392.3 72.2 L 392.7 72.4 L 393.1 72.6 L 393.5 72.9 L 394.0 73.1 L 394.4 73.3 L 394.8 73.5 L 395.2 73.8 L 395.6 74.0 L 395.9 74.2 L 396.3 74.4 L 396.7 74.7 L 397.1 74.9 L 397.4 75.1 L 397.8 75.3 L 398.2 75.6 L 398.6 75.8 L 399.0 76.0 L 399.4 76.2 L 399.8 76.5 L 400.2 76.7 L 400.7 76.9 L 401.2 77.1 L 401.7 77.4 L 402.2 77.6 L 402.7 77.8 L 403.2 78.0 L 403.9 78.2 L 404.5 78.5 L 405.0 78.7 L 405.4 78.9 L 405.9 79.1 L 406.5 79.4 L 407.0 79.6 L 407.5 79.8 L 408.1 80.0 L 408.7 80.3 L 409.4 80.5 L 410.1 80.7 L 410.8 80.9 L 411.4 81.2 L 412.0 81.4 L 412.5 81.6 L 413.1 81.8 L 413.5 82.1 L 414.1 82.3 L 414.6 82.5 L 415.1 82.7 L 415.7 83.0 L 416.2 83.2 L 416.8 83.4 L 417.3 83.6 L 418.0 83.9 L 418.5 84.1 L 419.0 84.3 L 419.7 84.5 L 420.2 84.8 L 420.6 85.0 L 421.0 85.2 L 421.4 85.4 L 421.9 85.7 L 422.3 85.9 L 422.8 86.1 L 423.2 86.3 L 423.7 86.6 L 424.1 86.8 L 424.5 87.0 L 424.9 87.2 L 425.2 87.5 L 425.7 87.7 L 426.1 87.9 L 426.6 88.1 L 427.0 88.4 L 427.6 88.6 L 428.1 88.8 L 428.6 89.0 L 429.1 89.3 L 429.5 89.5 L 430.0 89.7 L 430.5 89.9 L 430.9 90.2 L 431.4 90.4 L 431.9 90.6 L 432.5 90.8 L 432.9 91.1 L 433.4 91.3 L 434.0 91.5 L 434.5 91.7 L 435.0 92.0 L 435.4 92.2 L 436.0 92.4 L 436.4 92.6 L 436.9 92.9 L 437.4 93.1 L 437.9 93.3 L 438.4 93.5 L 438.8 93.8 L 439.3 94.0 L 439.8 94.2 L 440.2 94.4 L 440.7 94.6 L 441.1 94.9 L 441.6 95.1 L 442.1 95.3 L 442.5 95.5 L 442.9 95.8 L 443.3 96.0 L 444.0 96.2 L 444.6 96.4 L 445.3 96.7 L 445.9 96.9 L 446.4 97.1 L 446.9 97.3 L 447.4 97.6 L 447.9 97.8 L 448.4 98.0 L 448.8 98.2 L 449.3 98.5 L 449.8 98.7 L 450.2 98.9 L 450.7 99.1 L 451.2 99.4 L 451.6 99.6 L 452.1 99.8 L 452.6 100.0 L 453.1 100.3 L 453.6 100.5 L 454.1 100.7 L 454.6 100.9 L 455.2 101.2 L 455.7 101.4 L 456.2 101.6 L 456.5 101.8 L 456.9 102.1 L 457.3 102.3 L 457.7 102.5 L 458.2 102.7 L 458.5 103.0 L 459.0 103.2 L 459.7 103.4 L 460.4 103.6 L 461.1 103.9 L 461.9 104.1 L 462.6 104.3 L 463.1 104.5 L 463.7 104.8 L 464.2 105.0 L 464.8 105.2 L 465.3 105.4 L 465.7 105.7 L 466.3 105.9 L 466.8 106.1 L 467.3 106.3 L 467.7 106.6 L 468.1 106.8 L 468.6 107.0 L 469.0 107.2 L 469.5 107.5 L 470.0 107.7 L 470.5 107.9 L 471.0 108.1 L 471.4 108.4 L 471.9 108.6 L 472.3 108.8 L 472.7 109.0 L 473.1 109.3 L 473.7 109.5 L 474.3 109.7 L 474.9 109.9 L 475.4 110.1 L 476.4 110.4 L 477.2 110.6 L 478.1 110.8 L 478.8 111.0 L 479.6 111.3 L 480.6 111.5 L 481.5 111.7 L 482.2 111.9 L 482.9 112.2 L 483.5 112.4 L 484.4 112.6 L 485.4 112.8 L 487.9 113.1 L 489.2 113.3 L 490.0 113.5 L 490.7 113.7 L 492.1 114.0 L 493.1 114.2 L 495.1 114.4 L 495.7 114.6 L 496.5 114.9 L 497.3 115.1 L 498.2 115.3 L 498.9 115.5 L 499.6 115.8 L 500.3 116.0 L 501.2 116.2 L 501.8 116.4 L 502.5 116.7 L 503.1 116.9 L 503.7 117.1 L 504.2 117.3 L 504.7 117.6 L 505.2 117.8 L 505.6 118.0 L 506.1 118.2 L 506.6 118.5 L 507.0 118.7 L 507.4 118.9 L 507.8 119.1 L 508.3 119.4 L 508.8 119.6 L 509.3 119.8 L 509.7 120.0 L 510.2 120.3 L 510.7 120.5 L 511.1 120.7 L 511.5 120.9 L 512.0 121.2 L 512.4 121.4 L 512.8 121.6 L 513.2 121.8 L 513.6 122.1 L 514.0 122.3 L 514.3 122.5 L 514.8 122.7 L 515.2 123.0 L 515.5 123.2 L 515.9 123.4 L 516.2 123.6 L 516.7 123.9 L 517.1 124.1 L 517.5 124.3 L 517.9 124.5 L 518.3 124.8 L 518.7 125.0 L 519.2 125.2 L 519.7 125.4 L 520.2 125.6 L 520.6 125.9 L 521.5 126.1 L 522.0 126.3 L 522.5 126.5 L 523.0 126.8 L 523.5 127.0 L 524.0 127.2 L 524.6 127.4 L 525.0 127.7 L 525.5 127.9 L 526.0 128.1 L 526.4 128.3 L 526.9 128.6 L 527.3 128.8 L 527.7 129.0 L 528.2 129.2 L 528.5 129.5 L 528.9 129.7 L 529.3 129.9 L 529.7 130.1 L 530.1 130.4 L 530.5 130.6 L 530.9 130.8 L 531.3 131.0 L 531.7 131.3 L 532.1 131.5 L 532.5 131.7 L 532.9 131.9 L 533.3 132.2 L 533.7 132.4 L 534.1 132.6 L 534.4 132.8 L 534.9 133.1 L 535.4 133.3 L 535.9 133.5 L 536.6 133.7 L 537.3 134.0 L 538.0 134.2 L 538.6 134.4 L 539.0 134.6 L 540.1 134.9 L 540.6 135.1 L 541.1 135.3 L 541.7 135.5 L 542.1 135.8 L 542.6 136.0 L 543.2 136.2 L 544.0 136.4 L 544.5 136.7 L 545.1 136.9 L 545.6 137.1 L 546.1 137.3 L 546.6 137.6 L 547.1 137.8 L 547.8 138.0 L 548.4 138.2 L 548.9 138.5 L 549.8 138.7 L 551.6 138.9 L 552.2 139.1 L 552.8 139.4 L 553.6 139.6 L 554.2 139.8 L 554.8 140.0 L 555.3 140.3 L 555.9 140.5 L 556.5 140.7 L 557.4 140.9 L 558.0 141.1 L 558.6 141.4 L 559.2 141.6 L 559.7 141.8 L 560.2 142.0 L 561.0 142.3 L 561.5 142.5 L 562.0 142.7 L 562.6 142.9 L 563.1 143.2 L 563.6 143.4 L 564.1 143.6 L 564.6 143.8 L 565.2 144.1 L 565.8 144.3 L 566.5 144.5 L 567.2 144.7 L 568.0 145.0 L 568.9 145.2 L 569.5 145.4 L 570.2 145.6 L 570.9 145.9 L 571.7 146.1 L 572.4 146.3 L 572.9 146.5 L 573.3 146.8 L 573.8 147.0 L 574.3 147.2 L 574.7 147.4 L 575.2 147.7 L 575.6 147.9 L 576.1 148.1 L 576.5 148.3 L 577.0 148.6 L 577.4 148.8 L 577.9 149.0 L 578.4 149.2 L 578.8 149.5 L 579.3 149.7 L 579.7 149.9 L 580.2 150.1 L 580.7 150.4 L 581.2 150.6 L 581.7 150.8 L 582.2 151.0 L 582.7 151.3 L 583.2 151.5 L 583.8 151.7 L 584.4 151.9 L 585.0 152.2 L 585.5 152.4 L 586.0 152.6 L 586.5 152.8 L 587.1 153.1 L 587.6 153.3 L 588.1 153.5 L 588.5 153.7 L 589.0 154.0 L 589.4 154.2 L 589.9 154.4 L 590.5 154.6 L 591.0 154.9 L 591.4 155.1 L 591.8 155.3 L 592.2 155.5 L 592.7 155.8 L 593.1 156.0 L 593.5 156.2 L 593.9 156.4 L 594.3 156.7 L 594.8 156.9 L 595.2 157.1 L 595.6 157.3 L 596.1 157.5 L 596.5 157.8 L 596.9 158.0 L 597.3 158.2 L 597.8 158.4 L 598.4 158.7 L 598.8 158.9 L 599.3 159.1 L 599.8 159.3 L 600.2 159.6 L 600.7 159.8 L 601.2 160.0 L 601.6 160.2 L 602.1 160.5 L 602.6 160.7 L 603.1 160.9 L 603.6 161.1 L 604.1 161.4 L 604.5 161.6 L 605.0 161.8 L 605.5 162.0 L 606.0 162.3 L 606.5 162.5 L 607.0 162.7 L 607.5 162.9 L 608.0 163.2 L 608.4 163.4 L 608.8 163.6 L 609.3 163.8 L 609.8 164.1 L 610.4 164.3 L 611.1 164.5 L 611.8 164.7 L 612.6 165.0 L 613.3 165.2 L 614.0 165.4 L 614.6 165.6 L 615.3 165.9 L 615.9 166.1 L 616.6 166.3 L 617.4 166.5 L 618.0 166.8 L 618.6 167.0 L 619.4 167.2 L 620.0 167.4 L 620.7 167.7 L 621.3 167.9 L 621.8 168.1 L 622.4 168.3 L 623.2 168.6 L 623.9 168.8 L 624.5 169.0 L 625.2 169.2 L 625.9 169.5 L 626.3 169.7 L 626.8 169.9 L 627.3 170.1 L 627.8 170.4 L 628.4 170.6 L 628.8 170.8 L 629.4 171.0 L 629.9 171.3 L 630.3 171.5 L 630.8 171.7 L 631.2 171.9 L 631.7 172.2 L 632.2 172.4 L 632.6 172.6 L 633.1 172.8 L 633.6 173.0 L 634.1 173.3 L 634.5 173.5 L 635.1 173.7 L 635.6 173.9 L 636.2 174.2 L 636.6 174.4 L 637.1 174.6 L 637.6 174.8 L 638.0 175.1 L 638.4 175.3 L 638.9 175.5 L 639.4 175.7 L 639.9 176.0 L 640.5 176.2 L 641.0 176.4 L 641.5 176.6 L 641.9 176.9 L 642.5 177.1 L 643.0 177.3 L 643.4 177.5 L 643.9 177.8 L 644.5 178.0 L 644.9 178.2 L 645.3 178.4 L 645.7 178.7 L 646.2 178.9 L 646.5 179.1 L 646.9 179.3 L 647.4 179.6 L 647.9 179.8 L 648.4 180.0 L 649.5 180.2 L 650.2 180.5 L 650.8 180.7 L 651.4 180.9 L 651.9 181.1 L 652.5 181.4 L 653.1 181.6 L 653.7 181.8 L 654.6 182.0 L 655.3 182.3 L 655.8 182.5 L 656.3 182.7 L 656.8 182.9 L 657.2 183.2 L 657.6 183.4 L 658.0 183.6 L 658.4 183.8 L 658.9 184.1 L 659.3 184.3 L 659.7 184.5 L 660.2 184.7 L 660.6 185.0 L 661.1 185.2 L 661.6 185.4 L 662.1 185.6 L 662.7 185.9 L 663.1 186.1 L 663.6 186.3 L 664.0 186.5 L 664.4 186.8 L 664.8 187.0 L 665.3 187.2 L 665.8 187.4 L 666.2 187.7 L 666.6 187.9 L 667.0 188.1 L 667.4 188.3 L 667.8 188.5 L 668.2 188.8 L 668.5 189.0 L 669.0 189.2 L 669.5 189.4 L 670.1 189.7 L 670.6 189.9 L 671.2 190.1 L 671.8 190.3 L 672.4 190.6 L 673.3 190.8 L 674.8 191.0 L 675.5 191.2 L 676.0 191.5 L 676.6 191.7 L 677.1 191.9 L 677.7 192.1 L 678.2 192.4 L 678.7 192.6 L 679.3 192.8 L 679.9 193.0 L 680.5 193.3 L 681.2 193.5 L 681.9 193.7 L 682.8 193.9 L 683.4 194.2 L 684.1 194.4 L 684.7 194.6 L 685.3 194.8 L 685.9 195.1 L 686.5 195.3 L 687.1 195.5 L 688.1 195.7 L 689.2 196.0 L 690.0 196.2 L 690.6 196.4 L 691.1 196.6 L 691.6 196.9 L 692.0 197.1 L 692.4 197.3 L 692.8 197.5 L 693.2 197.8 L 693.5 198.0 L 693.9 198.2 L 694.2 198.4 L 694.6 198.7 L 694.9 198.9 L 695.3 199.1 L 695.7 199.3 L 696.1 199.6 L 696.5 199.8 L 696.9 200.0 L 711.6 200.2 L 713.6 200.5 L 715.8 200.7 L 718.0 200.9 L 720.7 201.1 L 721.9 201.4 L 722.5 201.6 L 723.2 201.8 L 724.0 202.0 L 724.8 202.3 L 725.4 202.5 L 726.1 202.7 L 726.8 202.9 L 727.5 203.2 L 728.3 203.4 L 729.1 203.6 L 729.7 203.8 L 730.7 204.0 L 731.5 204.3 L 732.4 204.5 L 733.1 204.7 L 733.9 204.9 L 734.7 205.2 L 735.3 205.4 L 736.0 205.6 L 736.6 205.8 L 737.2 206.1 L 737.9 206.3 L 738.5 206.5 L 739.3 206.7 L 740.2 207.0 L 741.1 207.2 L 742.0 207.4 L 743.0 207.6 L 743.7 207.9 L 744.3 208.1 L 744.9 208.3 L 745.6 208.5 L 746.3 208.8 L 747.0 209.0 L 747.6 209.2 L 748.2 209.4 L 748.9 209.7 L 749.6 209.9 L 750.3 210.1 L 750.9 210.3 L 751.5 210.6 L 752.2 210.8 L 752.9 211.0 L 753.5 211.2 L 754.2 211.5 L 754.9 211.7 L 755.5 211.9 L 756.0 212.1 L 756.7 212.4 L 757.3 212.6 L 758.0 212.8 L 758.5 213.0 L 759.1 213.3 L 759.6 213.5 L 760.3 213.7 L 760.9 213.9 L 761.5 214.2 L 762.1 214.4 L 762.8 214.6 L 763.7 214.8 L 764.5 215.1 L 765.1 215.3 L 765.7 215.5 L 766.2 215.7 L 766.8 216.0 L 767.4 216.2 L 767.9 216.4 L 768.4 216.6 L 769.0 216.9 L 769.5 217.1 L 770.1 217.3 L 770.7 217.5 L 771.3 217.8 L 771.9 218.0 L 772.4 218.2 L 773.0 218.4 L 773.5 218.7 L 774.1 218.9 L 774.8 219.1 L 775.4 219.3 L 775.9 219.6 L 776.5 219.8 L 777.0 220.0 L 777.6 220.2 L 778.3 220.4 L 778.9 220.7 L 779.7 220.9 L 780.3 221.1 L 780.9 221.3 L 781.5 221.6 L 782.1 221.8 L 782.8 222.0 L 783.3 222.2 L 783.8 222.5 L 784.4 222.7 L 784.9 222.9 L 785.5 223.1 L 786.0 223.4 L 786.6 223.6 L 787.2 223.8 L 787.8 224.0 L 788.4 224.3 L 788.9 224.5 L 789.4 224.7 L 790.0 224.9 L 790.5 225.2 L 791.1 225.4 L 791.7 225.6 L 792.2 225.8 L 792.7 226.1 L 793.3 226.3 L 793.8 226.5 L 794.3 226.7 L 795.0 227.0 L 795.5 227.2 L 796.1 227.4 L 796.7 227.6 L 797.3 227.9 L 797.8 228.1 L 798.3 228.3 L 798.9 228.5 L 799.4 228.8 L 800.0 229.0 L 800.6 229.2 L 801.2 229.4 L 801.7 229.7 L 802.3 229.9 L 802.9 230.1 L 803.5 230.3 L 804.1 230.6 L 804.7 230.8 L 805.3 231.0 L 805.9 231.2 L 806.6 231.5 L 807.2 231.7 L 807.8 231.9 L 808.3 232.1 L 808.9 232.4 L 809.5 232.6 L 810.1 232.8 L 810.6 233.0 L 811.2 233.3 L 811.8 233.5 L 812.4 233.7 L 812.9 233.9 L 813.5 234.2 L 814.1 234.4 L 814.6 234.6 L 815.1 234.8 L 815.6 235.1 L 816.0 235.3 L 816.6 235.5 L 817.1 235.7 L 817.6 235.9 L 818.2 236.2 L 818.7 236.4 L 819.2 236.6 L 819.7 236.8 L 820.2 237.1 L 820.6 237.3 L 821.2 237.5 L 821.7 237.7 L 822.2 238.0 L 822.7 238.2 L 823.3 238.4 L 823.8 238.6 L 824.3 238.9 L 824.9 239.1 L 825.5 239.3 L 826.0 239.5 L 826.5 239.8 L 827.0 240.0 L 827.7 240.2 L 828.3 240.4 L 828.9 240.7 L 829.4 240.9 L 830.0 241.1 L 830.6 241.3 L 831.2 241.6 L 831.7 241.8 L 832.3 242.0 L 833.0 242.2 L 833.7 242.5 L 834.2 242.7 L 834.7 242.9 L 835.2 243.1 L 835.7 243.4 L 836.3 243.6 L 836.8 243.8 L 837.4 244.0 L 838.0 244.3 L 839.1 244.5 L 840.4 244.7 L 841.8 244.9 L 842.6 245.2 L 843.1 245.4 L 843.7 245.6 L 844.2 245.8 L 844.8 246.1 L 845.3 246.3 L 845.8 246.5 L 846.4 246.7 L 847.0 247.0 L 847.5 247.2 L 848.1 247.4 L 848.7 247.6 L 849.3 247.9 L 849.9 248.1 L 850.5 248.3 L 851.2 248.5 L 851.7 248.8 L 852.3 249.0 L 852.8 249.2 L 853.4 249.4 L 853.9 249.7 L 854.5 249.9 L 855.1 250.1 L 855.7 250.3 L 856.2 250.6 L 856.8 250.8 L 857.4 251.0 L 858.0 251.2 L 858.6 251.4 L 859.3 251.7 L 860.0 251.9 L 860.8 252.1 L 861.5 252.3 L 862.2 252.6 L 862.9 252.8 L 863.7 253.0 L 864.4 253.2 L 865.0 253.5 L 865.7 253.7 L 866.2 253.9 L 866.8 254.1 L 867.5 254.4 L 868.1 254.6 L 868.8 254.8 L 869.5 255.0 L 870.1 255.3 L 870.7 255.5 L 871.3 255.7 L 871.9 255.9 L 872.6 256.2 L 873.2 256.4 L 873.7 256.6 L 874.2 256.8 L 874.8 257.1 L 875.3 257.3 L 875.9 257.5 L 876.5 257.7 L 877.2 258.0 L 877.8 258.2 L 878.3 258.4 L 878.9 258.6 L 879.5 258.9 L 880.1 259.1 L 880.6 259.3 L 881.1 259.5 L 881.5 259.8 L 882.1 260.0 L 882.7 260.2 L 883.2 260.4 L 883.8 260.7 L 884.3 260.9 L 884.8 261.1 L 885.2 261.3 L 885.7 261.6 L 886.1 261.8 L 886.6 262.0 L 887.1 262.2 L 887.5 262.5 L 888.0 262.7 L 888.4 262.9 L 888.9 263.1 L 889.3 263.4 L 889.8 263.6 L 890.2 263.8 L 890.7 264.0 L 891.2 264.3 L 891.6 264.5 L 892.1 264.7 L 892.6 264.9 L 893.1 265.2 L 893.7 265.4 L 894.2 265.6 L 894.6 265.8 L 895.2 266.1 L 895.7 266.3 L 896.3 266.5 L 896.8 266.7 L 897.3 266.9 L 897.8 267.2 L 898.3 267.4 L 898.7 267.6 L 899.2 267.8 L 899.6 268.1 L 900.1 268.3 L 900.7 268.5 L 901.2 268.7 L 901.7 269.0 L 902.1 269.2 L 902.6 269.4 L 903.1 269.6 L 903.6 269.9 L 904.1 270.1 L 904.5 270.3 L 905.0 270.5 L 905.5 270.8 L 906.0 271.0 L 906.5 271.2 L 907.0 271.4 L 907.5 271.7 L 908.1 271.9 L 908.6 272.1 L 909.1 272.3 L 909.6 272.6 L 910.1 272.8 L 910.6 273.0 L 911.1 273.2 L 911.5 273.5 L 912.0 273.7 L 912.6 273.9 L 913.2 274.1 L 914.0 274.4 L 914.7 274.6 L 915.4 274.8 L 916.0 275.0 L 916.5 275.3 L 917.0 275.5 L 917.6 275.7 L 918.1 275.9 L 918.6 276.2 L 919.2 276.4 L 919.7 276.6 L 920.3 276.8 L 920.8 277.1 L 921.4 277.3 L 922.1 277.5 L 922.6 277.7 L 923.2 278.0 L 923.7 278.2 L 924.3 278.4 L 924.9 278.6 L 925.4 278.9 L 926.0 279.1 L 926.5 279.3 L 927.1 279.5 L 927.6 279.8 L 928.2 280.0 L 928.8 280.2 L 929.4 280.4 L 930.1 280.7 L 930.7 280.9 L 931.3 281.1 L 931.9 281.3 L 932.4 281.6 L 933.0 281.8 L 933.7 282.0 L 934.4 282.2 L 935.0 282.5 L 935.5 282.7 L 936.0 282.9 L 936.5 283.1 L 937.1 283.3 L 937.6 283.6 L 938.1 283.8 L 938.7 284.0 L 939.2 284.2 L 939.7 284.5 L 940.2 284.7 L 940.6 284.9 L 941.1 285.1 L 941.6 285.4 L 942.0 285.6 L 942.5 285.8 L 942.9 286.0 L 943.6 286.3 L 944.1 286.5 L 944.7 286.7 L 945.3 286.9 L 945.9 287.2 L 946.5 287.4 L 947.0 287.6 L 947.4 287.8 L 947.9 288.1 L 948.4 288.3 L 948.9 288.5 L 949.5 288.7 L 950.2 289.0 L 950.8 289.2 L 951.5 289.4 L 952.1 289.6 L 952.7 289.9 L 953.2 290.1 L 953.7 290.3 L 954.3 290.5 L 954.8 290.8 L 955.3 291.0 L 955.9 291.2 L 956.4 291.4 L 957.0 291.7 L 957.5 291.9 L 958.0 292.1 L 958.5 292.3 L 959.1 292.6 L 959.6 292.8 L 960.3 293.0 L 960.9 293.2 L 961.5 293.5 L 962.1 293.7 L 962.7 293.9 L 963.2 294.1 L 963.8 294.4 L 964.3 294.6 L 964.8 294.8 L 965.4 295.0 L 965.9 295.3 L 966.5 295.5 L 967.1 295.7 L 967.7 295.9 L 968.2 296.2 L 968.8 296.4 L 969.3 296.6 L 969.8 296.8 L 970.3 297.1 L 970.9 297.3 L 971.4 297.5 L 972.0 297.7 L 972.5 298.0 L 973.1 298.2 L 973.7 298.4 L 974.3 298.6 L 974.8 298.8 L 975.4 299.1 L 976.0 299.3 L 976.7 299.5 L 977.3 299.7 L 977.9 300.0 L 978.5 300.2 L 979.1 300.4 L 979.7 300.6 L 980.3 300.9 L 980.9 301.1 L 981.5 301.3 L 982.1 301.5 L 982.6 301.8 L 983.2 302.0 L 983.8 302.2 L 984.4 302.4 L 985.1 302.7 L 985.7 302.9 L 986.3 303.1 L 986.9 303.3 L 987.4 303.6 L 988.0 303.8 L 988.7 304.0 L 989.4 304.2 L 990.4 304.5 L 991.3 304.7 L 992.0 304.9 L 992.5 305.1 L 993.1 305.4 L 993.7 305.6 L 994.3 305.8 L 994.8 306.0 L 995.5 306.3 L 996.2 306.5 L 996.9 306.7 L 997.5 306.9 L 998.8 307.2 L 999.8 307.4 L 1000.4 307.6 L 1001.1 307.8 L 1001.7 308.1 L 1002.3 308.3 L 1003.1 308.5 L 1003.7 308.7 L 1004.4 309.0 L 1004.9 309.2 L 1005.5 309.4 L 1006.2 309.6 L 1006.7 309.9 L 1007.3 310.1 L 1007.8 310.3 L 1008.4 310.5 L 1009.0 310.8 L 1009.6 311.0 L 1010.2 311.2 L 1010.8 311.4 L 1011.4 311.7 L 1012.0 311.9 L 1012.6 312.1 L 1013.1 312.3 L 1013.6 312.6 L 1014.2 312.8 L 1014.8 313.0 L 1015.3 313.2 L 1015.8 313.5 L 1016.4 313.7 L 1016.9 313.9 L 1017.4 314.1 L 1017.9 314.3 L 1018.4 314.6 L 1018.9 314.8 L 1019.5 315.0 L 1020.0 315.2 L 1020.6 315.5 L 1021.1 315.7 L 1021.6 315.9 L 1022.1 316.1 L 1022.6 316.4 L 1023.1 316.6 L 1023.6 316.8 L 1024.1 317.0 L 1024.5 317.3 L 1025.0 317.5 L 1025.5 317.7 L 1026.0 317.9 L 1026.6 318.2 L 1027.2 318.4 L 1027.7 318.6 L 1028.4 318.8 L 1028.9 319.1 L 1029.5 319.3 L 1030.1 319.5 L 1030.6 319.7 L 1031.1 320.0 L 1031.7 320.2 L 1033.6 320.4 L 1034.4 320.6 L 1035.2 320.9 L 1035.8 321.1 L 1036.4 321.3 L 1037.0 321.5 L 1037.8 321.8 L 1038.6 322.0 L 1039.3 322.2 L 1039.9 322.4 L 1040.6 322.7 L 1041.3 322.9 L 1042.1 323.1 L 1042.7 323.3 L 1043.2 323.6 L 1043.9 323.8 L 1044.5 324.0 L 1045.1 324.2 L 1045.9 324.5 L 1046.5 324.7 L 1047.1 324.9 L 1047.7 325.1 L 1048.3 325.4 L 1048.9 325.6 L 1049.5 325.8 L 1050.2 326.0 L 1050.7 326.3 L 1051.4 326.5 L 1052.1 326.7 L 1052.8 326.9 L 1053.5 327.2 L 1054.0 327.4 L 1054.6 327.6 L 1055.2 327.8 L 1055.7 328.1 L 1056.3 328.3 L 1057.2 328.5 L 1057.7 328.7 L 1058.3 329.0 L 1058.9 329.2 L 1059.4 329.4 L 1060.0 329.6 L 1060.5 329.8 L 1061.1 330.1 L 1061.6 330.3 L 1062.3 330.5 L 1062.8 330.7 L 1063.4 331.0 L 1063.8 331.2 L 1064.4 331.4 L 1064.9 331.6 L 1065.5 331.9 L 1066.1 332.1 L 1066.8 332.3 L 1067.5 332.5 L 1068.1 332.8 L 1068.6 333.0 L 1069.2 333.2 L 1069.7 333.4 L 1070.2 333.7 L 1070.7 333.9 L 1071.3 334.1 L 1071.9 334.3 L 1072.5 334.6 L 1073.1 334.8 L 1073.8 335.0 L 1074.4 335.2 L 1075.1 335.5 L 1075.7 335.7 L 1076.3 335.9 L 1077.0 336.1 L 1077.6 336.4 L 1078.2 336.6 L 1078.8 336.8 L 1079.4 337.0 L 1079.9 337.3 L 1080.4 337.5 L 1081.0 337.7 L 1081.7 337.9 L 1082.2 338.2 L 1082.8 338.4 L 1083.3 338.6 L 1083.9 338.8 L 1084.6 339.1 L 1085.2 339.3 L 1085.8 339.5 L 1086.3 339.7 L 1086.9 340.0 L 1087.5 340.2 L 1088.1 340.4 L 1088.6 340.6 L 1089.3 340.9 L 1090.1 341.1 L 1090.8 341.3 L 1091.3 341.5 L 1091.8 341.8 L 1092.3 342.0 L 1092.7 342.2 L 1093.2 342.4 L 1093.8 342.7 L 1094.3 342.9 L 1094.9 343.1 L 1095.6 343.3 L 1096.3 343.6 L 1096.8 343.8 L 1097.4 344.0 L 1097.9 344.2 L 1098.6 344.5 L 1099.5 344.7 L 1100.0 344.9 L 1100.6 345.1 L 1101.1 345.3 L 1101.7 345.6 L 1102.3 345.8 L 1103.0 346.0 L 1103.8 346.2 L 1104.6 346.5 L 1105.3 346.7 L 1106.0 346.9 L 1106.6 347.1 L 1107.2 347.4 L 1107.9 347.6 L 1108.4 347.8 L 1108.9 348.0 L 1109.5 348.3 L 1110.1 348.5 L 1110.8 348.7 L 1111.4 348.9 L 1112.1 349.2 L 1112.7 349.4 L 1113.4 349.6 L 1114.0 349.8 L 1114.5 350.1 L 1115.1 350.3 L 1115.9 350.5 L 1116.4 350.7 L 1117.1 351.0 L 1118.0 351.2 L 1118.7 351.4 L 1119.4 351.6 L 1120.2 351.9 L 1120.8 352.1 L 1121.4 352.3 L 1122.0 352.5 L 1122.7 352.8 L 1123.3 353.0 L 1123.9 353.2 L 1124.5 353.4 L 1125.1 353.7 L 1125.7 353.9 L 1126.2 354.1 L 1126.8 354.3 L 1127.3 354.6 L 1127.9 354.8 L 1128.5 355.0 L 1129.1 355.2 L 1129.8 355.5 L 1130.4 355.7 L 1130.9 355.9 L 1131.5 356.1 L 1132.1 356.4 L 1132.7 356.6 L 1133.3 356.8 L 1133.9 357.0 L 1134.5 357.3 L 1135.2 357.5 L 1135.7 357.7 L 1136.3 357.9 L 1136.8 358.2 L 1137.4 358.4 L 1137.9 358.6 L 1138.4 358.8 L 1139.0 359.1 L 1139.7 359.3 L 1140.3 359.5 L 1140.9 359.7 L 1141.7 360.0 L 1142.5 360.2 L 1143.1 360.4 L 1143.7 360.6 L 1144.3 360.9 L 1144.8 361.1 L 1145.4 361.3 L 1146.0 361.5 L 1146.5 361.7 L 1147.1 362.0 L 1147.6 362.2 L 1148.2 362.4 L 1148.7 362.6 L 1149.3 362.9 L 1149.9 363.1 L 1150.4 363.3 L 1151.0 363.5 L 1151.5 363.8 L 1152.0 364.0 L 1152.6 364.2 L 1153.2 364.4 L 1153.8 364.7 L 1154.4 364.9 L 1155.1 365.1 L 1155.7 365.3 L 1156.3 365.6 L 1156.9 365.8 L 1157.6 366.0 L 1158.3 366.2 L 1159.0 366.5 L 1159.6 366.7 L 1160.2 366.9 L 1160.8 367.1 L 1161.4 367.4 L 1162.1 367.6 L 1162.7 367.8 L 1163.4 368.0 L 1164.0 368.3 L 1164.8 368.5 L 1165.4 368.7 L 1166.1 368.9 L 1166.7 369.2 L 1167.3 369.4 L 1167.9 369.6 L 1168.5 369.8 L 1169.2 370.0 L 1170.0 370.0 L 1170.0 370 L 70.0 370 Z" fill="#ff8a3d" fill-opacity="0.15"/>
<path d="M 70.0 369.1 L 71.1 369.3 L 73.2 369.6 L 74.5 369.8 L 75.7 370.0 L 77.2 328.0 L 78.7 328.2 L 80.5 328.4 L 82.2 328.7 L 85.1 328.9 L 86.7 329.1 L 88.1 329.3 L 89.7 329.6 L 93.8 329.8 L 96.4 330.0 L 102.1 330.2 L 105.4 330.5 L 108.0 330.7 L 110.9 330.9 L 113.7 331.1 L 117.1 331.4 L 120.4 331.6 L 124.0 331.8 L 127.4 332.0 L 129.1 332.3 L 130.7 332.5 L 132.5 332.7 L 134.4 332.9 L 136.4 333.2 L 138.5 333.4 L 140.2 333.6 L 142.1 333.8 L 143.6 334.1 L 145.8 334.3 L 147.9 334.5 L 149.7 334.7 L 151.4 335.0 L 153.2 335.2 L 156.3 335.4 L 159.3 335.6 L 164.1 335.9 L 166.6 336.1 L 168.3 336.3 L 170.3 336.5 L 172.5 336.8 L 174.7 337.0 L 176.6 337.2 L 178.6 337.4 L 181.7 337.7 L 183.7 337.9 L 185.6 338.1 L 187.8 338.3 L 189.8 161.1 L 192.6 161.3 L 195.7 161.5 L 198.4 161.8 L 200.9 162.0 L 203.8 162.2 L 206.2 162.4 L 209.2 162.7 L 211.5 162.9 L 214.1 163.1 L 216.4 163.3 L 219.8 163.6 L 228.3 163.8 L 232.5 164.0 L 237.2 164.2 L 243.4 164.5 L 247.4 164.7 L 252.2 164.9 L 255.4 165.1 L 260.1 165.4 L 266.2 165.6 L 270.4 165.8 L 272.7 166.0 L 275.5 166.2 L 277.5 166.5 L 279.3 166.7 L 282.0 166.9 L 284.4 167.1 L 287.9 167.4 L 291.7 167.6 L 293.1 167.8 L 294.3 168.0 L 295.5 168.3 L 296.5 168.5 L 297.5 168.7 L 298.5 168.9 L 299.9 169.2 L 301.3 169.4 L 302.1 169.6 L 302.8 169.8 L 303.7 170.1 L 304.5 170.3 L 305.2 170.5 L 306.1 170.7 L 307.0 171.0 L 307.8 171.2 L 308.5 171.4 L 309.2 40.0 L 312.4 40.2 L 314.8 40.4 L 316.6 40.7 L 318.2 40.9 L 319.4 41.1 L 320.1 41.3 L 321.1 41.6 L 321.8 41.8 L 322.4 42.0 L 323.2 42.2 L 323.9 42.5 L 324.6 42.7 L 325.1 42.9 L 325.8 43.1 L 326.6 43.4 L 327.3 43.6 L 327.9 43.8 L 328.6 44.0 L 329.3 44.3 L 329.9 44.5 L 330.4 44.7 L 330.8 44.9 L 331.3 45.2 L 331.7 45.4 L 332.1 45.6 L 332.5 45.8 L 332.9 46.1 L 333.4 46.3 L 333.9 46.5 L 334.4 46.7 L 335.0 47.0 L 335.5 47.2 L 336.0 47.4 L 336.4 47.6 L 336.9 47.9 L 337.3 48.1 L 337.8 48.3 L 338.2 48.5 L 338.6 48.8 L 339.1 49.0 L 339.6 49.2 L 340.0 49.4 L 340.4 49.7 L 340.8 49.9 L 341.4 50.1 L 341.9 50.3 L 342.4 50.4 L 343.0 50.6 L 343.4 50.8 L 344.0 51.1 L 344.5 51.3 L 345.1 51.5 L 345.7 51.7 L 346.3 52.0 L 346.8 52.2 L 347.4 52.4 L 348.1 52.6 L 348.7 52.9 L 349.2 53.1 L 349.7 53.3 L 350.2 53.5 L 350.7 53.8 L 351.2 54.0 L 351.8 54.2 L 352.3 54.4 L 353.0 54.7 L 353.7 54.9 L 354.3 55.1 L 355.0 55.3 L 355.6 55.6 L 356.1 55.8 L 356.6 56.0 L 357.1 56.2 L 357.5 56.5 L 358.0 56.7 L 358.6 56.9 L 359.2 57.1 L 359.8 57.4 L 360.5 57.6 L 360.9 57.8 L 361.5 58.0 L 362.2 58.3 L 362.7 58.5 L 363.3 58.7 L 363.8 58.9 L 364.4 59.2 L 364.8 59.4 L 365.3 59.6 L 365.8 59.8 L 366.4 60.1 L 366.9 60.3 L 367.3 60.5 L 367.7 60.7 L 368.2 61.0 L 368.7 61.2 L 369.2 61.4 L 369.6 61.6 L 370.1 61.9 L 370.7 62.1 L 371.2 62.3 L 371.6 62.5 L 372.1 62.7 L 372.5 63.0 L 372.9 63.2 L 373.4 63.4 L 373.8 63.6 L 374.2 63.9 L 374.7 64.1 L 375.2 64.3 L 375.6 64.5 L 376.1 64.8 L 376.6 65.0 L 377.2 65.2 L 377.8 65.4 L 378.3 65.7 L 378.8 65.9 L 379.3 66.1 L 379.9 66.3 L 380.4 66.6 L 380.9 66.8 L 381.3 67.0 L 381.9 67.2 L 382.3 67.5 L 382.8 67.7 L 383.3 67.9 L 383.8 68.1 L 384.4 68.4 L 385.1 68.6 L 385.8 68.8 L 386.5 69.0 L 387.1 69.3 L 387.6 69.5 L 388.1 69.7 L 388.5 69.9 L 388.9 70.2 L 389.3 70.4 L 389.7 70.6 L 390.1 70.8 L 390.4 71.1 L 390.8 71.3 L 391.2 71.5 L 391.5 71.7 L 391.9 72.0 L 392.3 72.2 L 392.7 72.4 L 393.1 72.6 L 393.5 72.9 L 394.0 73.1 L 394.4 73.3 L 394.8 73.5 L 395.2 73.8 L 395.6 74.0 L 395.9 74.2 L 396.3 74.4 L 396.7 74.7 L 397.1 74.9 L 397.4 75.1 L 397.8 75.3 L 398.2 75.6 L 398.6 75.8 L 399.0 76.0 L 399.4 76.2 L 399.8 76.5 L 400.2 76.7 L 400.7 76.9 L 401.2 77.1 L 401.7 77.4 L 402.2 77.6 L 402.7 77.8 L 403.2 78.0 L 403.9 78.2 L 404.5 78.5 L 405.0 78.7 L 405.4 78.9 L 405.9 79.1 L 406.5 79.4 L 407.0 79.6 L 407.5 79.8 L 408.1 80.0 L 408.7 80.3 L 409.4 80.5 L 410.1 80.7 L 410.8 80.9 L 411.4 81.2 L 412.0 81.4 L 412.5 81.6 L 413.1 81.8 L 413.5 82.1 L 414.1 82.3 L 414.6 82.5 L 415.1 82.7 L 415.7 83.0 L 416.2 83.2 L 416.8 83.4 L 417.3 83.6 L 418.0 83.9 L 418.5 84.1 L 419.0 84.3 L 419.7 84.5 L 420.2 84.8 L 420.6 85.0 L 421.0 85.2 L 421.4 85.4 L 421.9 85.7 L 422.3 85.9 L 422.8 86.1 L 423.2 86.3 L 423.7 86.6 L 424.1 86.8 L 424.5 87.0 L 424.9 87.2 L 425.2 87.5 L 425.7 87.7 L 426.1 87.9 L 426.6 88.1 L 427.0 88.4 L 427.6 88.6 L 428.1 88.8 L 428.6 89.0 L 429.1 89.3 L 429.5 89.5 L 430.0 89.7 L 430.5 89.9 L 430.9 90.2 L 431.4 90.4 L 431.9 90.6 L 432.5 90.8 L 432.9 91.1 L 433.4 91.3 L 434.0 91.5 L 434.5 91.7 L 435.0 92.0 L 435.4 92.2 L 436.0 92.4 L 436.4 92.6 L 436.9 92.9 L 437.4 93.1 L 437.9 93.3 L 438.4 93.5 L 438.8 93.8 L 439.3 94.0 L 439.8 94.2 L 440.2 94.4 L 440.7 94.6 L 441.1 94.9 L 441.6 95.1 L 442.1 95.3 L 442.5 95.5 L 442.9 95.8 L 443.3 96.0 L 444.0 96.2 L 444.6 96.4 L 445.3 96.7 L 445.9 96.9 L 446.4 97.1 L 446.9 97.3 L 447.4 97.6 L 447.9 97.8 L 448.4 98.0 L 448.8 98.2 L 449.3 98.5 L 449.8 98.7 L 450.2 98.9 L 450.7 99.1 L 451.2 99.4 L 451.6 99.6 L 452.1 99.8 L 452.6 100.0 L 453.1 100.3 L 453.6 100.5 L 454.1 100.7 L 454.6 100.9 L 455.2 101.2 L 455.7 101.4 L 456.2 101.6 L 456.5 101.8 L 456.9 102.1 L 457.3 102.3 L 457.7 102.5 L 458.2 102.7 L 458.5 103.0 L 459.0 103.2 L 459.7 103.4 L 460.4 103.6 L 461.1 103.9 L 461.9 104.1 L 462.6 104.3 L 463.1 104.5 L 463.7 104.8 L 464.2 105.0 L 464.8 105.2 L 465.3 105.4 L 465.7 105.7 L 466.3 105.9 L 466.8 106.1 L 467.3 106.3 L 467.7 106.6 L 468.1 106.8 L 468.6 107.0 L 469.0 107.2 L 469.5 107.5 L 470.0 107.7 L 470.5 107.9 L 471.0 108.1 L 471.4 108.4 L 471.9 108.6 L 472.3 108.8 L 472.7 109.0 L 473.1 109.3 L 473.7 109.5 L 474.3 109.7 L 474.9 109.9 L 475.4 110.1 L 476.4 110.4 L 477.2 110.6 L 478.1 110.8 L 478.8 111.0 L 479.6 111.3 L 480.6 111.5 L 481.5 111.7 L 482.2 111.9 L 482.9 112.2 L 483.5 112.4 L 484.4 112.6 L 485.4 112.8 L 487.9 113.1 L 489.2 113.3 L 490.0 113.5 L 490.7 113.7 L 492.1 114.0 L 493.1 114.2 L 495.1 114.4 L 495.7 114.6 L 496.5 114.9 L 497.3 115.1 L 498.2 115.3 L 498.9 115.5 L 499.6 115.8 L 500.3 116.0 L 501.2 116.2 L 501.8 116.4 L 502.5 116.7 L 503.1 116.9 L 503.7 117.1 L 504.2 117.3 L 504.7 117.6 L 505.2 117.8 L 505.6 118.0 L 506.1 118.2 L 506.6 118.5 L 507.0 118.7 L 507.4 118.9 L 507.8 119.1 L 508.3 119.4 L 508.8 119.6 L 509.3 119.8 L 509.7 120.0 L 510.2 120.3 L 510.7 120.5 L 511.1 120.7 L 511.5 120.9 L 512.0 121.2 L 512.4 121.4 L 512.8 121.6 L 513.2 121.8 L 513.6 122.1 L 514.0 122.3 L 514.3 122.5 L 514.8 122.7 L 515.2 123.0 L 515.5 123.2 L 515.9 123.4 L 516.2 123.6 L 516.7 123.9 L 517.1 124.1 L 517.5 124.3 L 517.9 124.5 L 518.3 124.8 L 518.7 125.0 L 519.2 125.2 L 519.7 125.4 L 520.2 125.6 L 520.6 125.9 L 521.5 126.1 L 522.0 126.3 L 522.5 126.5 L 523.0 126.8 L 523.5 127.0 L 524.0 127.2 L 524.6 127.4 L 525.0 127.7 L 525.5 127.9 L 526.0 128.1 L 526.4 128.3 L 526.9 128.6 L 527.3 128.8 L 527.7 129.0 L 528.2 129.2 L 528.5 129.5 L 528.9 129.7 L 529.3 129.9 L 529.7 130.1 L 530.1 130.4 L 530.5 130.6 L 530.9 130.8 L 531.3 131.0 L 531.7 131.3 L 532.1 131.5 L 532.5 131.7 L 532.9 131.9 L 533.3 132.2 L 533.7 132.4 L 534.1 132.6 L 534.4 132.8 L 534.9 133.1 L 535.4 133.3 L 535.9 133.5 L 536.6 133.7 L 537.3 134.0 L 538.0 134.2 L 538.6 134.4 L 539.0 134.6 L 540.1 134.9 L 540.6 135.1 L 541.1 135.3 L 541.7 135.5 L 542.1 135.8 L 542.6 136.0 L 543.2 136.2 L 544.0 136.4 L 544.5 136.7 L 545.1 136.9 L 545.6 137.1 L 546.1 137.3 L 546.6 137.6 L 547.1 137.8 L 547.8 138.0 L 548.4 138.2 L 548.9 138.5 L 549.8 138.7 L 551.6 138.9 L 552.2 139.1 L 552.8 139.4 L 553.6 139.6 L 554.2 139.8 L 554.8 140.0 L 555.3 140.3 L 555.9 140.5 L 556.5 140.7 L 557.4 140.9 L 558.0 141.1 L 558.6 141.4 L 559.2 141.6 L 559.7 141.8 L 560.2 142.0 L 561.0 142.3 L 561.5 142.5 L 562.0 142.7 L 562.6 142.9 L 563.1 143.2 L 563.6 143.4 L 564.1 143.6 L 564.6 143.8 L 565.2 144.1 L 565.8 144.3 L 566.5 144.5 L 567.2 144.7 L 568.0 145.0 L 568.9 145.2 L 569.5 145.4 L 570.2 145.6 L 570.9 145.9 L 571.7 146.1 L 572.4 146.3 L 572.9 146.5 L 573.3 146.8 L 573.8 147.0 L 574.3 147.2 L 574.7 147.4 L 575.2 147.7 L 575.6 147.9 L 576.1 148.1 L 576.5 148.3 L 577.0 148.6 L 577.4 148.8 L 577.9 149.0 L 578.4 149.2 L 578.8 149.5 L 579.3 149.7 L 579.7 149.9 L 580.2 150.1 L 580.7 150.4 L 581.2 150.6 L 581.7 150.8 L 582.2 151.0 L 582.7 151.3 L 583.2 151.5 L 583.8 151.7 L 584.4 151.9 L 585.0 152.2 L 585.5 152.4 L 586.0 152.6 L 586.5 152.8 L 587.1 153.1 L 587.6 153.3 L 588.1 153.5 L 588.5 153.7 L 589.0 154.0 L 589.4 154.2 L 589.9 154.4 L 590.5 154.6 L 591.0 154.9 L 591.4 155.1 L 591.8 155.3 L 592.2 155.5 L 592.7 155.8 L 593.1 156.0 L 593.5 156.2 L 593.9 156.4 L 594.3 156.7 L 594.8 156.9 L 595.2 157.1 L 595.6 157.3 L 596.1 157.5 L 596.5 157.8 L 596.9 158.0 L 597.3 158.2 L 597.8 158.4 L 598.4 158.7 L 598.8 158.9 L 599.3 159.1 L 599.8 159.3 L 600.2 159.6 L 600.7 159.8 L 601.2 160.0 L 601.6 160.2 L 602.1 160.5 L 602.6 160.7 L 603.1 160.9 L 603.6 161.1 L 604.1 161.4 L 604.5 161.6 L 605.0 161.8 L 605.5 162.0 L 606.0 162.3 L 606.5 162.5 L 607.0 162.7 L 607.5 162.9 L 608.0 163.2 L 608.4 163.4 L 608.8 163.6 L 609.3 163.8 L 609.8 164.1 L 610.4 164.3 L 611.1 164.5 L 611.8 164.7 L 612.6 165.0 L 613.3 165.2 L 614.0 165.4 L 614.6 165.6 L 615.3 165.9 L 615.9 166.1 L 616.6 166.3 L 617.4 166.5 L 618.0 166.8 L 618.6 167.0 L 619.4 167.2 L 620.0 167.4 L 620.7 167.7 L 621.3 167.9 L 621.8 168.1 L 622.4 168.3 L 623.2 168.6 L 623.9 168.8 L 624.5 169.0 L 625.2 169.2 L 625.9 169.5 L 626.3 169.7 L 626.8 169.9 L 627.3 170.1 L 627.8 170.4 L 628.4 170.6 L 628.8 170.8 L 629.4 171.0 L 629.9 171.3 L 630.3 171.5 L 630.8 171.7 L 631.2 171.9 L 631.7 172.2 L 632.2 172.4 L 632.6 172.6 L 633.1 172.8 L 633.6 173.0 L 634.1 173.3 L 634.5 173.5 L 635.1 173.7 L 635.6 173.9 L 636.2 174.2 L 636.6 174.4 L 637.1 174.6 L 637.6 174.8 L 638.0 175.1 L 638.4 175.3 L 638.9 175.5 L 639.4 175.7 L 639.9 176.0 L 640.5 176.2 L 641.0 176.4 L 641.5 176.6 L 641.9 176.9 L 642.5 177.1 L 643.0 177.3 L 643.4 177.5 L 643.9 177.8 L 644.5 178.0 L 644.9 178.2 L 645.3 178.4 L 645.7 178.7 L 646.2 178.9 L 646.5 179.1 L 646.9 179.3 L 647.4 179.6 L 647.9 179.8 L 648.4 180.0 L 649.5 180.2 L 650.2 180.5 L 650.8 180.7 L 651.4 180.9 L 651.9 181.1 L 652.5 181.4 L 653.1 181.6 L 653.7 181.8 L 654.6 182.0 L 655.3 182.3 L 655.8 182.5 L 656.3 182.7 L 656.8 182.9 L 657.2 183.2 L 657.6 183.4 L 658.0 183.6 L 658.4 183.8 L 658.9 184.1 L 659.3 184.3 L 659.7 184.5 L 660.2 184.7 L 660.6 185.0 L 661.1 185.2 L 661.6 185.4 L 662.1 185.6 L 662.7 185.9 L 663.1 186.1 L 663.6 186.3 L 664.0 186.5 L 664.4 186.8 L 664.8 187.0 L 665.3 187.2 L 665.8 187.4 L 666.2 187.7 L 666.6 187.9 L 667.0 188.1 L 667.4 188.3 L 667.8 188.5 L 668.2 188.8 L 668.5 189.0 L 669.0 189.2 L 669.5 189.4 L 670.1 189.7 L 670.6 189.9 L 671.2 190.1 L 671.8 190.3 L 672.4 190.6 L 673.3 190.8 L 674.8 191.0 L 675.5 191.2 L 676.0 191.5 L 676.6 191.7 L 677.1 191.9 L 677.7 192.1 L 678.2 192.4 L 678.7 192.6 L 679.3 192.8 L 679.9 193.0 L 680.5 193.3 L 681.2 193.5 L 681.9 193.7 L 682.8 193.9 L 683.4 194.2 L 684.1 194.4 L 684.7 194.6 L 685.3 194.8 L 685.9 195.1 L 686.5 195.3 L 687.1 195.5 L 688.1 195.7 L 689.2 196.0 L 690.0 196.2 L 690.6 196.4 L 691.1 196.6 L 691.6 196.9 L 692.0 197.1 L 692.4 197.3 L 692.8 197.5 L 693.2 197.8 L 693.5 198.0 L 693.9 198.2 L 694.2 198.4 L 694.6 198.7 L 694.9 198.9 L 695.3 199.1 L 695.7 199.3 L 696.1 199.6 L 696.5 199.8 L 696.9 200.0 L 711.6 200.2 L 713.6 200.5 L 715.8 200.7 L 718.0 200.9 L 720.7 201.1 L 721.9 201.4 L 722.5 201.6 L 723.2 201.8 L 724.0 202.0 L 724.8 202.3 L 725.4 202.5 L 726.1 202.7 L 726.8 202.9 L 727.5 203.2 L 728.3 203.4 L 729.1 203.6 L 729.7 203.8 L 730.7 204.0 L 731.5 204.3 L 732.4 204.5 L 733.1 204.7 L 733.9 204.9 L 734.7 205.2 L 735.3 205.4 L 736.0 205.6 L 736.6 205.8 L 737.2 206.1 L 737.9 206.3 L 738.5 206.5 L 739.3 206.7 L 740.2 207.0 L 741.1 207.2 L 742.0 207.4 L 743.0 207.6 L 743.7 207.9 L 744.3 208.1 L 744.9 208.3 L 745.6 208.5 L 746.3 208.8 L 747.0 209.0 L 747.6 209.2 L 748.2 209.4 L 748.9 209.7 L 749.6 209.9 L 750.3 210.1 L 750.9 210.3 L 751.5 210.6 L 752.2 210.8 L 752.9 211.0 L 753.5 211.2 L 754.2 211.5 L 754.9 211.7 L 755.5 211.9 L 756.0 212.1 L 756.7 212.4 L 757.3 212.6 L 758.0 212.8 L 758.5 213.0 L 759.1 213.3 L 759.6 213.5 L 760.3 213.7 L 760.9 213.9 L 761.5 214.2 L 762.1 214.4 L 762.8 214.6 L 763.7 214.8 L 764.5 215.1 L 765.1 215.3 L 765.7 215.5 L 766.2 215.7 L 766.8 216.0 L 767.4 216.2 L 767.9 216.4 L 768.4 216.6 L 769.0 216.9 L 769.5 217.1 L 770.1 217.3 L 770.7 217.5 L 771.3 217.8 L 771.9 218.0 L 772.4 218.2 L 773.0 218.4 L 773.5 218.7 L 774.1 218.9 L 774.8 219.1 L 775.4 219.3 L 775.9 219.6 L 776.5 219.8 L 777.0 220.0 L 777.6 220.2 L 778.3 220.4 L 778.9 220.7 L 779.7 220.9 L 780.3 221.1 L 780.9 221.3 L 781.5 221.6 L 782.1 221.8 L 782.8 222.0 L 783.3 222.2 L 783.8 222.5 L 784.4 222.7 L 784.9 222.9 L 785.5 223.1 L 786.0 223.4 L 786.6 223.6 L 787.2 223.8 L 787.8 224.0 L 788.4 224.3 L 788.9 224.5 L 789.4 224.7 L 790.0 224.9 L 790.5 225.2 L 791.1 225.4 L 791.7 225.6 L 792.2 225.8 L 792.7 226.1 L 793.3 226.3 L 793.8 226.5 L 794.3 226.7 L 795.0 227.0 L 795.5 227.2 L 796.1 227.4 L 796.7 227.6 L 797.3 227.9 L 797.8 228.1 L 798.3 228.3 L 798.9 228.5 L 799.4 228.8 L 800.0 229.0 L 800.6 229.2 L 801.2 229.4 L 801.7 229.7 L 802.3 229.9 L 802.9 230.1 L 803.5 230.3 L 804.1 230.6 L 804.7 230.8 L 805.3 231.0 L 805.9 231.2 L 806.6 231.5 L 807.2 231.7 L 807.8 231.9 L 808.3 232.1 L 808.9 232.4 L 809.5 232.6 L 810.1 232.8 L 810.6 233.0 L 811.2 233.3 L 811.8 233.5 L 812.4 233.7 L 812.9 233.9 L 813.5 234.2 L 814.1 234.4 L 814.6 234.6 L 815.1 234.8 L 815.6 235.1 L 816.0 235.3 L 816.6 235.5 L 817.1 235.7 L 817.6 235.9 L 818.2 236.2 L 818.7 236.4 L 819.2 236.6 L 819.7 236.8 L 820.2 237.1 L 820.6 237.3 L 821.2 237.5 L 821.7 237.7 L 822.2 238.0 L 822.7 238.2 L 823.3 238.4 L 823.8 238.6 L 824.3 238.9 L 824.9 239.1 L 825.5 239.3 L 826.0 239.5 L 826.5 239.8 L 827.0 240.0 L 827.7 240.2 L 828.3 240.4 L 828.9 240.7 L 829.4 240.9 L 830.0 241.1 L 830.6 241.3 L 831.2 241.6 L 831.7 241.8 L 832.3 242.0 L 833.0 242.2 L 833.7 242.5 L 834.2 242.7 L 834.7 242.9 L 835.2 243.1 L 835.7 243.4 L 836.3 243.6 L 836.8 243.8 L 837.4 244.0 L 838.0 244.3 L 839.1 244.5 L 840.4 244.7 L 841.8 244.9 L 842.6 245.2 L 843.1 245.4 L 843.7 245.6 L 844.2 245.8 L 844.8 246.1 L 845.3 246.3 L 845.8 246.5 L 846.4 246.7 L 847.0 247.0 L 847.5 247.2 L 848.1 247.4 L 848.7 247.6 L 849.3 247.9 L 849.9 248.1 L 850.5 248.3 L 851.2 248.5 L 851.7 248.8 L 852.3 249.0 L 852.8 249.2 L 853.4 249.4 L 853.9 249.7 L 854.5 249.9 L 855.1 250.1 L 855.7 250.3 L 856.2 250.6 L 856.8 250.8 L 857.4 251.0 L 858.0 251.2 L 858.6 251.4 L 859.3 251.7 L 860.0 251.9 L 860.8 252.1 L 861.5 252.3 L 862.2 252.6 L 862.9 252.8 L 863.7 253.0 L 864.4 253.2 L 865.0 253.5 L 865.7 253.7 L 866.2 253.9 L 866.8 254.1 L 867.5 254.4 L 868.1 254.6 L 868.8 254.8 L 869.5 255.0 L 870.1 255.3 L 870.7 255.5 L 871.3 255.7 L 871.9 255.9 L 872.6 256.2 L 873.2 256.4 L 873.7 256.6 L 874.2 256.8 L 874.8 257.1 L 875.3 257.3 L 875.9 257.5 L 876.5 257.7 L 877.2 258.0 L 877.8 258.2 L 878.3 258.4 L 878.9 258.6 L 879.5 258.9 L 880.1 259.1 L 880.6 259.3 L 881.1 259.5 L 881.5 259.8 L 882.1 260.0 L 882.7 260.2 L 883.2 260.4 L 883.8 260.7 L 884.3 260.9 L 884.8 261.1 L 885.2 261.3 L 885.7 261.6 L 886.1 261.8 L 886.6 262.0 L 887.1 262.2 L 887.5 262.5 L 888.0 262.7 L 888.4 262.9 L 888.9 263.1 L 889.3 263.4 L 889.8 263.6 L 890.2 263.8 L 890.7 264.0 L 891.2 264.3 L 891.6 264.5 L 892.1 264.7 L 892.6 264.9 L 893.1 265.2 L 893.7 265.4 L 894.2 265.6 L 894.6 265.8 L 895.2 266.1 L 895.7 266.3 L 896.3 266.5 L 896.8 266.7 L 897.3 266.9 L 897.8 267.2 L 898.3 267.4 L 898.7 267.6 L 899.2 267.8 L 899.6 268.1 L 900.1 268.3 L 900.7 268.5 L 901.2 268.7 L 901.7 269.0 L 902.1 269.2 L 902.6 269.4 L 903.1 269.6 L 903.6 269.9 L 904.1 270.1 L 904.5 270.3 L 905.0 270.5 L 905.5 270.8 L 906.0 271.0 L 906.5 271.2 L 907.0 271.4 L 907.5 271.7 L 908.1 271.9 L 908.6 272.1 L 909.1 272.3 L 909.6 272.6 L 910.1 272.8 L 910.6 273.0 L 911.1 273.2 L 911.5 273.5 L 912.0 273.7 L 912.6 273.9 L 913.2 274.1 L 914.0 274.4 L 914.7 274.6 L 915.4 274.8 L 916.0 275.0 L 916.5 275.3 L 917.0 275.5 L 917.6 275.7 L 918.1 275.9 L 918.6 276.2 L 919.2 276.4 L 919.7 276.6 L 920.3 276.8 L 920.8 277.1 L 921.4 277.3 L 922.1 277.5 L 922.6 277.7 L 923.2 278.0 L 923.7 278.2 L 924.3 278.4 L 924.9 278.6 L 925.4 278.9 L 926.0 279.1 L 926.5 279.3 L 927.1 279.5 L 927.6 279.8 L 928.2 280.0 L 928.8 280.2 L 929.4 280.4 L 930.1 280.7 L 930.7 280.9 L 931.3 281.1 L 931.9 281.3 L 932.4 281.6 L 933.0 281.8 L 933.7 282.0 L 934.4 282.2 L 935.0 282.5 L 935.5 282.7 L 936.0 282.9 L 936.5 283.1 L 937.1 283.3 L 937.6 283.6 L 938.1 283.8 L 938.7 284.0 L 939.2 284.2 L 939.7 284.5 L 940.2 284.7 L 940.6 284.9 L 941.1 285.1 L 941.6 285.4 L 942.0 285.6 L 942.5 285.8 L 942.9 286.0 L 943.6 286.3 L 944.1 286.5 L 944.7 286.7 L 945.3 286.9 L 945.9 287.2 L 946.5 287.4 L 947.0 287.6 L 947.4 287.8 L 947.9 288.1 L 948.4 288.3 L 948.9 288.5 L 949.5 288.7 L 950.2 289.0 L 950.8 289.2 L 951.5 289.4 L 952.1 289.6 L 952.7 289.9 L 953.2 290.1 L 953.7 290.3 L 954.3 290.5 L 954.8 290.8 L 955.3 291.0 L 955.9 291.2 L 956.4 291.4 L 957.0 291.7 L 957.5 291.9 L 958.0 292.1 L 958.5 292.3 L 959.1 292.6 L 959.6 292.8 L 960.3 293.0 L 960.9 293.2 L 961.5 293.5 L 962.1 293.7 L 962.7 293.9 L 963.2 294.1 L 963.8 294.4 L 964.3 294.6 L 964.8 294.8 L 965.4 295.0 L 965.9 295.3 L 966.5 295.5 L 967.1 295.7 L 967.7 295.9 L 968.2 296.2 L 968.8 296.4 L 969.3 296.6 L 969.8 296.8 L 970.3 297.1 L 970.9 297.3 L 971.4 297.5 L 972.0 297.7 L 972.5 298.0 L 973.1 298.2 L 973.7 298.4 L 974.3 298.6 L 974.8 298.8 L 975.4 299.1 L 976.0 299.3 L 976.7 299.5 L 977.3 299.7 L 977.9 300.0 L 978.5 300.2 L 979.1 300.4 L 979.7 300.6 L 980.3 300.9 L 980.9 301.1 L 981.5 301.3 L 982.1 301.5 L 982.6 301.8 L 983.2 302.0 L 983.8 302.2 L 984.4 302.4 L 985.1 302.7 L 985.7 302.9 L 986.3 303.1 L 986.9 303.3 L 987.4 303.6 L 988.0 303.8 L 988.7 304.0 L 989.4 304.2 L 990.4 304.5 L 991.3 304.7 L 992.0 304.9 L 992.5 305.1 L 993.1 305.4 L 993.7 305.6 L 994.3 305.8 L 994.8 306.0 L 995.5 306.3 L 996.2 306.5 L 996.9 306.7 L 997.5 306.9 L 998.8 307.2 L 999.8 307.4 L 1000.4 307.6 L 1001.1 307.8 L 1001.7 308.1 L 1002.3 308.3 L 1003.1 308.5 L 1003.7 308.7 L 1004.4 309.0 L 1004.9 309.2 L 1005.5 309.4 L 1006.2 309.6 L 1006.7 309.9 L 1007.3 310.1 L 1007.8 310.3 L 1008.4 310.5 L 1009.0 310.8 L 1009.6 311.0 L 1010.2 311.2 L 1010.8 311.4 L 1011.4 311.7 L 1012.0 311.9 L 1012.6 312.1 L 1013.1 312.3 L 1013.6 312.6 L 1014.2 312.8 L 1014.8 313.0 L 1015.3 313.2 L 1015.8 313.5 L 1016.4 313.7 L 1016.9 313.9 L 1017.4 314.1 L 1017.9 314.3 L 1018.4 314.6 L 1018.9 314.8 L 1019.5 315.0 L 1020.0 315.2 L 1020.6 315.5 L 1021.1 315.7 L 1021.6 315.9 L 1022.1 316.1 L 1022.6 316.4 L 1023.1 316.6 L 1023.6 316.8 L 1024.1 317.0 L 1024.5 317.3 L 1025.0 317.5 L 1025.5 317.7 L 1026.0 317.9 L 1026.6 318.2 L 1027.2 318.4 L 1027.7 318.6 L 1028.4 318.8 L 1028.9 319.1 L 1029.5 319.3 L 1030.1 319.5 L 1030.6 319.7 L 1031.1 320.0 L 1031.7 320.2 L 1033.6 320.4 L 1034.4 320.6 L 1035.2 320.9 L 1035.8 321.1 L 1036.4 321.3 L 1037.0 321.5 L 1037.8 321.8 L 1038.6 322.0 L 1039.3 322.2 L 1039.9 322.4 L 1040.6 322.7 L 1041.3 322.9 L 1042.1 323.1 L 1042.7 323.3 L 1043.2 323.6 L 1043.9 323.8 L 1044.5 324.0 L 1045.1 324.2 L 1045.9 324.5 L 1046.5 324.7 L 1047.1 324.9 L 1047.7 325.1 L 1048.3 325.4 L 1048.9 325.6 L 1049.5 325.8 L 1050.2 326.0 L 1050.7 326.3 L 1051.4 326.5 L 1052.1 326.7 L 1052.8 326.9 L 1053.5 327.2 L 1054.0 327.4 L 1054.6 327.6 L 1055.2 327.8 L 1055.7 328.1 L 1056.3 328.3 L 1057.2 328.5 L 1057.7 328.7 L 1058.3 329.0 L 1058.9 329.2 L 1059.4 329.4 L 1060.0 329.6 L 1060.5 329.8 L 1061.1 330.1 L 1061.6 330.3 L 1062.3 330.5 L 1062.8 330.7 L 1063.4 331.0 L 1063.8 331.2 L 1064.4 331.4 L 1064.9 331.6 L 1065.5 331.9 L 1066.1 332.1 L 1066.8 332.3 L 1067.5 332.5 L 1068.1 332.8 L 1068.6 333.0 L 1069.2 333.2 L 1069.7 333.4 L 1070.2 333.7 L 1070.7 333.9 L 1071.3 334.1 L 1071.9 334.3 L 1072.5 334.6 L 1073.1 334.8 L 1073.8 335.0 L 1074.4 335.2 L 1075.1 335.5 L 1075.7 335.7 L 1076.3 335.9 L 1077.0 336.1 L 1077.6 336.4 L 1078.2 336.6 L 1078.8 336.8 L 1079.4 337.0 L 1079.9 337.3 L 1080.4 337.5 L 1081.0 337.7 L 1081.7 337.9 L 1082.2 338.2 L 1082.8 338.4 L 1083.3 338.6 L 1083.9 338.8 L 1084.6 339.1 L 1085.2 339.3 L 1085.8 339.5 L 1086.3 339.7 L 1086.9 340.0 L 1087.5 340.2 L 1088.1 340.4 L 1088.6 340.6 L 1089.3 340.9 L 1090.1 341.1 L 1090.8 341.3 L 1091.3 341.5 L 1091.8 341.8 L 1092.3 342.0 L 1092.7 342.2 L 1093.2 342.4 L 1093.8 342.7 L 1094.3 342.9 L 1094.9 343.1 L 1095.6 343.3 L 1096.3 343.6 L 1096.8 343.8 L 1097.4 344.0 L 1097.9 344.2 L 1098.6 344.5 L 1099.5 344.7 L 1100.0 344.9 L 1100.6 345.1 L 1101.1 345.3 L 1101.7 345.6 L 1102.3 345.8 L 1103.0 346.0 L 1103.8 346.2 L 1104.6 346.5 L 1105.3 346.7 L 1106.0 346.9 L 1106.6 347.1 L 1107.2 347.4 L 1107.9 347.6 L 1108.4 347.8 L 1108.9 348.0 L 1109.5 348.3 L 1110.1 348.5 L 1110.8 348.7 L 1111.4 348.9 L 1112.1 349.2 L 1112.7 349.4 L 1113.4 349.6 L 1114.0 349.8 L 1114.5 350.1 L 1115.1 350.3 L 1115.9 350.5 L 1116.4 350.7 L 1117.1 351.0 L 1118.0 351.2 L 1118.7 351.4 L 1119.4 351.6 L 1120.2 351.9 L 1120.8 352.1 L 1121.4 352.3 L 1122.0 352.5 L 1122.7 352.8 L 1123.3 353.0 L 1123.9 353.2 L 1124.5 353.4 L 1125.1 353.7 L 1125.7 353.9 L 1126.2 354.1 L 1126.8 354.3 L 1127.3 354.6 L 1127.9 354.8 L 1128.5 355.0 L 1129.1 355.2 L 1129.8 355.5 L 1130.4 355.7 L 1130.9 355.9 L 1131.5 356.1 L 1132.1 356.4 L 1132.7 356.6 L 1133.3 356.8 L 1133.9 357.0 L 1134.5 357.3 L 1135.2 357.5 L 1135.7 357.7 L 1136.3 357.9 L 1136.8 358.2 L 1137.4 358.4 L 1137.9 358.6 L 1138.4 358.8 L 1139.0 359.1 L 1139.7 359.3 L 1140.3 359.5 L 1140.9 359.7 L 1141.7 360.0 L 1142.5 360.2 L 1143.1 360.4 L 1143.7 360.6 L 1144.3 360.9 L 1144.8 361.1 L 1145.4 361.3 L 1146.0 361.5 L 1146.5 361.7 L 1147.1 362.0 L 1147.6 362.2 L 1148.2 362.4 L 1148.7 362.6 L 1149.3 362.9 L 1149.9 363.1 L 1150.4 363.3 L 1151.0 363.5 L 1151.5 363.8 L 1152.0 364.0 L 1152.6 364.2 L 1153.2 364.4 L 1153.8 364.7 L 1154.4 364.9 L 1155.1 365.1 L 1155.7 365.3 L 1156.3 365.6 L 1156.9 365.8 L 1157.6 366.0 L 1158.3 366.2 L 1159.0 366.5 L 1159.6 366.7 L 1160.2 366.9 L 1160.8 367.1 L 1161.4 367.4 L 1162.1 367.6 L 1162.7 367.8 L 1163.4 368.0 L 1164.0 368.3 L 1164.8 368.5 L 1165.4 368.7 L 1166.1 368.9 L 1166.7 369.2 L 1167.3 369.4 L 1167.9 369.6 L 1168.5 369.8 L 1169.2 370.0 L 1170.0 370.0 " fill="none" stroke="#ff8a3d" stroke-width="2"/>
<circle cx="309.2" cy="40.0" r="4" fill="#ff3b3b"/>
<text x="317.2" y="32.0" fill="#ff6b6b" font-weight="bold">peak lag 146,900 @ 32s</text>
<line x1="70" y1="40" x2="70" y2="370" stroke="#555"/>
<line x1="70" y1="370" x2="1170" y2="370" stroke="#555"/>
<text x="620" y="410" fill="#bbb" text-anchor="middle">time since consumer start</text>
<text x="16" y="205" fill="#bbb" transform="rotate(-90 16 205)" text-anchor="middle">consumer group lag (messages)</text>
</svg>